<?xml version="1.0" encoding="UTF-8" standalone="no"?>
<!DOCTYPE svg PUBLIC "-//W3C//DTD SVG 1.1//EN" "http://www.w3.org/Graphics/SVG/1.1/DTD/svg11.dtd">
<svg width="100%" height="100%" viewBox="0 0 40 40" version="1.1" xmlns="http://www.w3.org/2000/svg" xmlns:xlink="http://www.w3.org/1999/xlink" xml:space="preserve" xmlns:serif="http://www.serif.com/" style="fill-rule:evenodd;clip-rule:evenodd;stroke-linejoin:round;stroke-miterlimit:2;">
    <g transform="matrix(0.625,0,0,0.625,-99.3854,-135.893)">
        <g transform="matrix(1.87683,0,0,1.87683,-278.192,-219.789)">
            <g transform="matrix(1,0,0,1,231.95,231.552)">
                <path d="M11.792,6.062L11.781,9.386L17.129,8L14.193,6L11.792,6.062ZM33.25,23.482C33.25,22.344 34.011,21.411 35,21.244L35,9.585C31,8.623 1,16.776 1,16.776L1,20.312C2.564,20.606 3.75,21.974 3.75,23.624C3.75,25.274 2.564,26.644 1,26.938L1,34.654L35,28.172L35,25.721C34.011,25.553 33.25,24.619 33.25,23.482Z" style="fill:rgb(255,172,51);fill-rule:nonzero;"/>
            </g>
            <g transform="matrix(1,0,0,1,231.95,231.552)">
                <path d="M15.585,2.242L11.742,6.085C12.479,6.257 13,6.676 13,7.167C13,7.812 12.104,8.334 11,8.334C10.526,8.334 10.097,8.234 9.755,8.074L1,16.828C14.167,13.917 23.042,11.542 35.1,9.602C30.238,3.12 18.827,2.242 15.585,2.242Z" style="fill:rgb(255,217,131);fill-rule:nonzero;"/>
            </g>
            <g transform="matrix(1,0,0,1,231.95,231.552)">
                <path d="M20,5.167C20,5.812 19.104,6.334 18,6.334C16.896,6.334 16,5.812 16,5.167C16,4.522 16.896,4 18,4C19.104,4 20,4.522 20,5.167ZM15.072,11.562C15.072,12.54 13.713,13.333 12.036,13.333C10.359,13.333 9,12.54 9,11.562C9,10.585 10.359,9.791 12.036,9.791C13.712,9.792 15.072,10.585 15.072,11.562ZM29,8.352C29,9.446 27.479,10.333 25.604,10.333C23.729,10.333 22.208,9.446 22.208,8.352C22.208,7.258 23.729,6.371 25.604,6.371C27.479,6.371 29,7.258 29,8.352Z" style="fill:rgb(255,172,51);fill-rule:nonzero;"/>
            </g>
            <g transform="matrix(1,0,0,1,231.95,231.552)">
                <path d="M33.625,15.62C33.625,16.952 32.646,18.031 31.437,18.031C30.228,18.031 29.249,16.952 29.249,15.62C29.249,14.288 30.228,13.209 31.437,13.209C32.646,13.209 33.625,14.288 33.625,15.62ZM11.375,20.482C11.375,21.737 10.452,22.754 9.313,22.754C8.174,22.754 7.251,21.736 7.251,20.482C7.251,19.226 8.174,18.209 9.313,18.209C10.452,18.209 11.375,19.227 11.375,20.482ZM28.531,25.462C28.028,26.064 27.176,26.182 26.628,25.724C26.081,25.267 26.046,24.407 26.551,23.805C27.056,23.2 27.907,23.083 28.454,23.54C29.002,23.998 29.036,24.857 28.531,25.462ZM18.847,18.084C18.17,18.895 17.022,19.054 16.285,18.437C15.549,17.822 15.502,16.664 16.181,15.854C16.861,15.04 18.007,14.883 18.743,15.498C19.48,16.114 19.527,17.271 18.847,18.084ZM19.72,28.099C18.52,29.703 16.366,30.12 14.912,29.032C13.457,27.944 13.249,25.76 14.449,24.157C15.649,22.552 17.803,22.135 19.257,23.222C20.712,24.31 20.92,26.494 19.72,28.099Z" style="fill:rgb(244,144,12);fill-rule:nonzero;"/>
            </g>
        </g>
        <g transform="matrix(1.75937,0,0,1.75937,-165.15,-157.138)">
            <g transform="matrix(1,0,0,1,188.286,212.381)">
                <path d="M14.524,21.036C14.379,20.92 14.266,20.762 14.212,20.572C14.078,20.112 14.342,19.654 14.802,19.551C19.33,18.53 22.379,20.914 22.508,21.016C22.892,21.322 22.967,21.861 22.681,22.221C22.395,22.579 21.853,22.622 21.47,22.318C21.36,22.234 18.947,20.395 15.288,21.22C15.014,21.281 14.734,21.204 14.524,21.036Z" style="fill:rgb(101,71,27);fill-rule:nonzero;"/>
            </g>
            <g transform="matrix(1,0,0,1,188.286,212.381)">
                <ellipse cx="13.119" cy="11.174" rx="2.125" ry="2.656" style="fill:rgb(101,71,27);"/>
            </g>
            <g transform="matrix(1,0,0,1,188.286,212.381)">
                <ellipse cx="24.375" cy="12.236" rx="2.125" ry="2.656" style="fill:rgb(101,71,27);"/>
            </g>
            <g transform="matrix(1,0,0,1,188.286,212.381)">
                <path d="M17.276,35.149C17.276,35.149 18.541,34.738 18.705,33.797C18.878,32.825 18.081,32.63 18.081,32.63C18.081,32.63 19.122,32.422 19.253,31.254C19.376,30.153 18.392,29.891 18.392,29.891C18.392,29.891 19.362,29.491 19.408,28.352C19.446,27.393 18.413,26.924 18.413,26.924C18.413,26.924 23.451,25.703 23.969,25.583C24.485,25.463 25.289,24.968 25.038,23.889C24.789,22.809 23.834,22.771 23.341,22.886C22.847,23.001 16.597,24.452 14.441,24.954L13.002,25.288C12.462,25.415 12.217,25.178 12.598,24.776C13.106,24.24 13.431,23.647 13.544,22.663C13.663,21.628 13.312,20.35 13.111,19.854C12.737,18.933 12.106,18.205 11.377,17.955C10.24,17.565 9.432,18.276 9.835,19.516C10.439,21.37 10.043,22.891 9.002,23.809C6.553,25.966 5.414,27.504 6.172,30.782C7,34.357 10.549,36.658 14.124,35.83L17.276,35.149Z" style="fill:rgb(241,144,32);fill-rule:nonzero;"/>
            </g>
            <g transform="matrix(1,0,0,1,188.286,212.381)">
                <path d="M9.296,6.351C9.132,6.263 8.993,6.127 8.905,5.952C8.689,5.524 8.865,5.025 9.298,4.84C13.564,3.009 16.997,4.797 17.141,4.874C17.574,5.105 17.749,5.621 17.532,6.028C17.316,6.433 16.792,6.574 16.359,6.346C16.236,6.283 13.527,4.914 10.081,6.393C9.824,6.502 9.534,6.478 9.296,6.351ZM21.431,10.101C21.275,10.003 21.145,9.858 21.069,9.677C20.882,9.235 21.092,8.75 21.537,8.593C25.918,7.057 29.222,9.073 29.36,9.16C29.775,9.42 29.915,9.947 29.672,10.338C29.43,10.728 28.896,10.833 28.481,10.576C28.361,10.504 25.754,8.955 22.214,10.197C21.948,10.288 21.661,10.243 21.431,10.101Z" style="fill:rgb(101,71,27);fill-rule:nonzero;"/>
            </g>
        </g>
    </g>
</svg>
